<?xml version="1.0" encoding="utf-8"?>
<!-- Generator: Adobe Illustrator 26.3.0, SVG Export Plug-In . SVG Version: 6.00 Build 0)  -->
<svg version="1.1" id="Livello_1" xmlns="http://www.w3.org/2000/svg" xmlns:xlink="http://www.w3.org/1999/xlink" x="0px" y="0px"
	 viewBox="0 0 618.1 142.5" style="enable-background:new 0 0 618.1 142.5;" xml:space="preserve">
<style type="text/css">
	.st0{fill:#FFFFFF;}
</style>
<g>
	<polygon class="st0" points="210.3,43.5 192.2,43.5 180.2,67.6 167.4,43.5 147.8,43.5 169,82.1 153.4,115.1 175.4,115.1 
		191.3,82.3 	"/>
	<path class="st0" d="M68.5,102.5c-5.9,0-11.3-1.3-16.2-3.9c-4.8-2.6-8.6-6.2-11.4-10.8c-2.8-4.6-4.2-9.7-4.2-15.4
		c0-5.8,1.4-10.9,4.2-15.5c2.8-4.6,6.6-8.1,11.5-10.7c4.8-2.6,10.3-3.9,16.3-3.9c4.5,0,8.7,0.8,12.4,2.3c3.8,1.5,7.1,3.9,10,6.9
		L79.5,63.1c-1.3-1.5-2.9-2.6-4.7-3.3c-1.8-0.7-3.8-1.1-6.1-1.1c-2.6,0-4.9,0.6-6.9,1.7c-2,1.1-3.6,2.7-4.8,4.8
		c-1.1,2-1.7,4.4-1.7,7.1c0,2.7,0.6,5.1,1.7,7.1c1.1,2.1,2.8,3.7,4.8,4.9c2.1,1.2,4.4,1.8,6.9,1.8c2.4,0,4.5-0.4,6.4-1.2
		c1.9-0.8,3.5-2,4.8-3.5l11.5,11.6c-3,3.2-6.4,5.6-10.2,7.2C77.4,101.7,73.1,102.5,68.5,102.5z"/>
	<path class="st0" d="M99.5,101.2V43.5h18.2v57.7H99.5z M117.7,69.5l-7.6-5.9c1.5-6.7,4-12,7.6-15.7c3.6-3.7,8.5-5.6,14.8-5.6
		c2.8,0,5.2,0.4,7.3,1.2c2.1,0.8,3.9,2.1,5.5,3.9l-10.8,13.7c-0.8-0.9-1.8-1.5-3-2c-1.2-0.5-2.5-0.7-4-0.7c-3,0-5.4,0.9-7.2,2.8
		C118.5,63,117.7,65.8,117.7,69.5z"/>
	<path class="st0" d="M211.7,115.1V43.5h18.2v14.8l-3,14l2.7,14v28.7H211.7z M245,102.4c-3.9,0-7.4-0.8-10.7-2.3
		c-3.2-1.5-5.9-3.6-8-6.2c-2.1-2.7-3.2-5.7-3.6-9.1V60.5c0.3-3.4,1.5-6.5,3.6-9.3c2.1-2.8,4.7-4.9,8-6.5c3.2-1.6,6.8-2.4,10.7-2.4
		c5.5,0,10.3,1.3,14.5,3.9c4.2,2.6,7.6,6.2,10,10.7c2.4,4.5,3.6,9.7,3.6,15.4c0,5.8-1.2,10.9-3.6,15.4c-2.4,4.5-5.7,8.1-10,10.7
		C255.3,101.1,250.4,102.4,245,102.4z M241.7,86c2.6,0,4.9-0.6,6.8-1.8c1.9-1.2,3.5-2.8,4.6-4.9c1.1-2.1,1.7-4.4,1.7-7
		c0-2.7-0.6-5.1-1.7-7.1c-1.1-2.1-2.6-3.7-4.6-4.8c-1.9-1.1-4.2-1.7-6.7-1.7c-2.5,0-4.8,0.6-6.7,1.7c-1.9,1.1-3.5,2.8-4.6,4.8
		c-1.1,2.1-1.7,4.4-1.7,7.1c0,2.6,0.5,4.9,1.6,7c1.1,2.1,2.6,3.7,4.6,4.9C237,85.4,239.2,86,241.7,86z"/>
	<path class="st0" d="M276.3,58.9V43.5h44.3v15.4H276.3z M289.4,101.2V44.5h18.2v56.7H289.4z"/>
	<path class="st0" d="M355.2,102.5c-5.9,0-11.3-1.3-16.1-4c-4.8-2.7-8.6-6.3-11.3-10.9c-2.8-4.6-4.2-9.7-4.2-15.4s1.4-10.8,4.2-15.3
		c2.8-4.5,6.5-8.1,11.3-10.7c4.8-2.7,10.1-4,16.2-4c6,0,11.4,1.3,16.2,3.9c4.8,2.6,8.5,6.2,11.3,10.7c2.8,4.6,4.2,9.7,4.2,15.4
		s-1.4,10.8-4.2,15.4c-2.8,4.6-6.5,8.2-11.3,10.9C366.6,101.2,361.2,102.5,355.2,102.5z M355.2,86c2.6,0,4.9-0.6,6.9-1.7
		c2-1.1,3.5-2.8,4.6-4.9c1.1-2.1,1.6-4.5,1.6-7.2c0-2.7-0.6-5-1.7-7.1c-1.1-2-2.6-3.6-4.6-4.8c-1.9-1.1-4.2-1.7-6.8-1.7
		c-2.5,0-4.8,0.6-6.8,1.7c-2,1.1-3.5,2.8-4.6,4.8c-1.1,2.1-1.7,4.4-1.7,7.1c0,2.6,0.6,5,1.7,7.1c1.1,2.1,2.7,3.7,4.6,4.9
		C350.4,85.4,352.7,86,355.2,86z"/>
	<path class="st0" d="M395.8,101.2V43.5H414v57.7H395.8z M433.9,101.2V68.3c0-3-0.9-5.4-2.8-7.3c-1.9-1.9-4.2-2.8-7.1-2.8
		c-2,0-3.7,0.4-5.2,1.2c-1.5,0.8-2.7,2-3.6,3.6c-0.9,1.5-1.3,3.3-1.3,5.3l-7-3.4c0-4.5,1-8.5,3-11.9c2-3.4,4.7-6,8.3-7.9
		c3.5-1.9,7.5-2.8,11.9-2.8c4.3,0,8.1,1,11.3,3c3.3,2,5.9,4.7,7.8,8c1.9,3.3,2.9,7,2.9,10.9v36.9H433.9z"/>
	<path class="st0" d="M463.8,101.2V43.5h18.2v57.7H463.8z"/>
	<path class="st0" d="M489.9,58.9V43.5h44.3v15.4H489.9z M503,101.2V44.5h18.2v56.7H503z"/>
	<path class="st0" d="M569.5,102.5c-6.3,0-11.8-1.3-16.7-3.9c-4.9-2.6-8.7-6.2-11.5-10.7c-2.8-4.6-4.2-9.8-4.2-15.6
		c0-5.8,1.4-10.9,4.1-15.5c2.7-4.6,6.4-8.1,11.1-10.7c4.7-2.6,9.9-3.9,15.8-3.9c5.7,0,10.7,1.2,15.1,3.7c4.4,2.5,7.8,5.9,10.3,10.2
		c2.5,4.4,3.7,9.3,3.7,15c0,1-0.1,2.1-0.2,3.3c-0.1,1.1-0.3,2.5-0.7,4l-49.8,0.1V65.9l42-0.1l-7.8,5.2c-0.1-3.3-0.6-6.1-1.5-8.3
		c-1-2.2-2.4-3.8-4.2-5c-1.9-1.1-4.1-1.7-6.8-1.7c-2.9,0-5.3,0.7-7.4,2c-2.1,1.3-3.7,3.1-4.9,5.5c-1.1,2.4-1.7,5.3-1.7,8.7
		c0,3.4,0.6,6.3,1.8,8.7c1.2,2.4,3,4.3,5.2,5.6c2.3,1.3,4.9,2,8,2c2.9,0,5.4-0.5,7.7-1.5c2.3-1,4.3-2.5,6.1-4.5l10,10
		c-2.9,3.3-6.3,5.8-10.3,7.5C578.7,101.7,574.3,102.5,569.5,102.5z"/>
</g>
</svg>
