<?xml version="1.0" encoding="utf-8"?>
<!-- Generator: Adobe Illustrator 26.3.0, SVG Export Plug-In . SVG Version: 6.00 Build 0)  -->
<svg version="1.1" id="Livello_1" xmlns="http://www.w3.org/2000/svg" xmlns:xlink="http://www.w3.org/1999/xlink" x="0px" y="0px"
	 viewBox="0 0 672.1 144" style="enable-background:new 0 0 672.1 144;" xml:space="preserve">
<style type="text/css">
	.st0{fill:#FFFFFF;}
	.st1{fill:#00AE8C;}
	.st2{fill:url(#SVGID_1_);}
	.st3{fill:url(#SVGID_00000167364516912321807640000006987244617282372267_);}
	.st4{fill:url(#SVGID_00000114054422528430499720000007291900885801751484_);}
	.st5{fill:url(#SVGID_00000128446448355967776570000007392598686103183253_);}
	.st6{opacity:0.31;fill:url(#SVGID_00000093883690748622159620000003988630785536114348_);}
	.st7{opacity:0.24;fill:url(#SVGID_00000021820852267357341580000008756178780164465580_);}
	.st8{opacity:0.15;fill:url(#SVGID_00000080918954272005229090000002961886222558384827_);}
	.st9{fill:#00B794;}
	.st10{fill:#54C69D;}
	.st11{fill:#55D7AE;}
	.st12{fill:#DFF4F0;}
	.st13{fill:url(#SVGID_00000067950316553002982300000008298557548538395302_);}
	.st14{fill:#CEF4EC;}
	.st15{opacity:0.35;fill:url(#SVGID_00000003070730447926819310000002053727407500982960_);}
	.st16{opacity:0.35;fill:url(#SVGID_00000122002151516516426610000000593487080884386970_);}
	.st17{opacity:0.35;fill:url(#SVGID_00000053526369671067580370000014725395045080564106_);}
	.st18{fill:url(#SVGID_00000070797471709171178720000009622898772979926416_);}
	.st19{fill:url(#SVGID_00000110463159923319697700000012998636240111315599_);}
</style>
<g>
	<polygon class="st0" points="314,46.3 298.8,46.3 288.7,66.5 278,46.3 261.5,46.3 279.2,78.7 266.2,106.4 284.6,106.4 298.1,78.9 	
		"/>
	<path class="st0" d="M194.8,95.9c-5,0-9.5-1.1-13.6-3.3c-4.1-2.2-7.3-5.2-9.6-9.1c-2.3-3.9-3.5-8.2-3.5-13c0-4.9,1.2-9.2,3.5-13
		c2.4-3.8,5.6-6.8,9.6-9c4.1-2.2,8.6-3.3,13.7-3.3c3.8,0,7.3,0.6,10.4,1.9c3.2,1.3,6,3.2,8.4,5.8l-9.8,9.8c-1.1-1.3-2.4-2.2-3.9-2.8
		c-1.5-0.6-3.2-0.9-5.1-0.9c-2.2,0-4.1,0.5-5.8,1.4c-1.7,1-3,2.3-4,4c-1,1.7-1.4,3.7-1.4,5.9c0,2.3,0.5,4.3,1.4,6
		c1,1.7,2.3,3.1,4,4.1c1.7,1,3.7,1.5,5.8,1.5c2,0,3.8-0.3,5.3-1c1.6-0.7,2.9-1.7,4-2.9l9.7,9.8c-2.5,2.7-5.4,4.7-8.6,6
		C202.3,95.2,198.8,95.9,194.8,95.9z"/>
	<path class="st0" d="M220.9,94.8V46.3h15.3v48.5H220.9z M236.2,68.1l-6.4-5c1.3-5.7,3.4-10,6.4-13.2c3-3.1,7.1-4.7,12.5-4.7
		c2.3,0,4.4,0.3,6.1,1c1.8,0.7,3.3,1.8,4.6,3.2L250.3,61c-0.7-0.7-1.5-1.3-2.5-1.7s-2.1-0.6-3.4-0.6c-2.5,0-4.5,0.8-6,2.3
		C236.9,62.7,236.2,65,236.2,68.1z"/>
	<path class="st0" d="M315.2,106.4V46.3h15.3v12.5l-2.5,11.8l2.3,11.8v24.1H315.2z M343.1,95.8c-3.3,0-6.3-0.6-9-1.9
		c-2.7-1.3-5-3-6.7-5.2c-1.7-2.2-2.7-4.8-3-7.6V60.5c0.3-2.9,1.3-5.5,3-7.8c1.7-2.3,4-4.2,6.7-5.5c2.7-1.3,5.7-2,9-2
		c4.6,0,8.7,1.1,12.2,3.3c3.6,2.2,6.4,5.2,8.4,9c2,3.8,3,8.1,3,13c0,4.9-1,9.2-3,13c-2,3.8-4.8,6.8-8.4,9
		C351.8,94.7,347.7,95.8,343.1,95.8z M340.3,82c2.2,0,4.1-0.5,5.7-1.5c1.6-1,2.9-2.4,3.8-4.1c0.9-1.7,1.4-3.7,1.4-5.9
		c0-2.3-0.5-4.3-1.4-6c-0.9-1.7-2.2-3.1-3.8-4c-1.6-1-3.5-1.4-5.6-1.4c-2.1,0-4,0.5-5.6,1.4c-1.6,1-2.9,2.3-3.8,4
		c-0.9,1.7-1.4,3.7-1.4,6c0,2.2,0.4,4.2,1.3,5.9c0.9,1.7,2.2,3.1,3.8,4.1C336.4,81.5,338.2,82,340.3,82z"/>
	<path class="st0" d="M369.4,59.3v-13h37.2v13H369.4z M380.4,94.8V47.2h15.3v47.6H380.4z"/>
	<path class="st0" d="M435.7,95.9c-5,0-9.5-1.1-13.5-3.3c-4-2.2-7.2-5.3-9.5-9.1c-2.3-3.9-3.5-8.2-3.5-13c0-4.8,1.2-9.1,3.5-12.9
		c2.3-3.8,5.5-6.8,9.5-9c4-2.2,8.5-3.3,13.6-3.3c5.1,0,9.6,1.1,13.6,3.3c4,2.2,7.1,5.2,9.5,9c2.3,3.8,3.5,8.1,3.5,12.9
		c0,4.8-1.2,9.1-3.5,13c-2.3,3.9-5.5,6.9-9.5,9.1C445.3,94.8,440.7,95.9,435.7,95.9z M435.7,82c2.2,0,4.1-0.5,5.8-1.4
		c1.7-1,2.9-2.3,3.8-4.1c0.9-1.8,1.3-3.8,1.3-6c0-2.3-0.5-4.2-1.4-5.9c-0.9-1.7-2.2-3-3.8-4c-1.6-1-3.5-1.4-5.7-1.4
		c-2.1,0-4,0.5-5.7,1.4c-1.7,1-3,2.3-3.9,4c-0.9,1.7-1.4,3.7-1.4,6c0,2.2,0.5,4.2,1.4,5.9c0.9,1.8,2.2,3.1,3.9,4.1
		C431.7,81.5,433.6,82,435.7,82z"/>
	<path class="st0" d="M469.8,94.8V46.3h15.3v48.5H469.8z M501.8,94.8V67.1c0-2.5-0.8-4.6-2.3-6.1c-1.6-1.6-3.5-2.3-5.9-2.3
		c-1.7,0-3.1,0.3-4.4,1c-1.3,0.7-2.3,1.7-3,3c-0.7,1.3-1.1,2.8-1.1,4.4l-5.9-2.9c0-3.8,0.8-7.1,2.5-10c1.7-2.9,4-5.1,6.9-6.6
		c3-1.6,6.3-2.3,10-2.3c3.6,0,6.8,0.8,9.5,2.5c2.8,1.7,4.9,3.9,6.5,6.7c1.6,2.8,2.4,5.9,2.4,9.2v31H501.8z"/>
	<path class="st0" d="M526.9,94.8V46.3h15.3v48.5H526.9z"/>
	<path class="st0" d="M548.8,59.3v-13H586v13H548.8z M559.8,94.8V47.2h15.3v47.6H559.8z"/>
	<path class="st0" d="M615.7,95.9c-5.3,0-9.9-1.1-14-3.2c-4.1-2.2-7.3-5.2-9.6-9c-2.3-3.9-3.5-8.2-3.5-13.1c0-4.9,1.1-9.2,3.4-13
		c2.3-3.8,5.4-6.8,9.3-9c3.9-2.2,8.3-3.3,13.3-3.3c4.8,0,9,1,12.7,3.1c3.7,2.1,6.5,4.9,8.6,8.6c2.1,3.7,3.1,7.8,3.1,12.6
		c0,0.9,0,1.8-0.1,2.7c-0.1,1-0.3,2.1-0.5,3.3l-41.8,0.1V65.1l35.3-0.1l-6.6,4.4c-0.1-2.8-0.5-5.1-1.3-6.9c-0.8-1.8-2-3.2-3.5-4.2
		c-1.6-1-3.5-1.4-5.7-1.4c-2.4,0-4.5,0.5-6.2,1.6c-1.8,1.1-3.1,2.6-4.1,4.6c-1,2-1.4,4.4-1.4,7.3c0,2.9,0.5,5.3,1.5,7.3
		c1,2,2.5,3.6,4.4,4.7c1.9,1.1,4.1,1.6,6.7,1.6c2.4,0,4.6-0.4,6.5-1.2c1.9-0.8,3.6-2.1,5.1-3.7l8.4,8.4c-2.4,2.8-5.3,4.9-8.7,6.3
		C623.4,95.2,619.7,95.9,615.7,95.9z"/>
</g>
<g>
	<circle class="st1" cx="83.9" cy="71" r="55.7"/>
	<path class="st0" d="M83.9,128.3c-14.7,0-29.3-5.6-40.5-16.7c-22.3-22.3-22.3-58.6,0-81c22.3-22.3,58.6-22.3,81,0
		c22.3,22.3,22.3,58.6,0,81C113.3,122.7,98.6,128.3,83.9,128.3z M83.9,16.8c-13.9,0-27.8,5.3-38.4,15.9c-21.1,21.1-21.1,55.6,0,76.7
		c21.1,21.1,55.6,21.1,76.7,0c21.1-21.1,21.1-55.6,0-76.7C111.7,22.1,97.8,16.8,83.9,16.8z"/>
</g>
<g>
	
		<linearGradient id="SVGID_1_" gradientUnits="userSpaceOnUse" x1="384.8138" y1="434.3941" x2="352.7291" y2="515.3697" gradientTransform="matrix(0.3141 0.9494 -0.9494 0.3141 455.0684 -429.3685)">
		<stop  offset="0" style="stop-color:#FFFFFF"/>
		<stop  offset="1" style="stop-color:#00AE8C"/>
	</linearGradient>
	<circle class="st2" cx="82.7" cy="67.7" r="52.6"/>
</g>
<linearGradient id="SVGID_00000026148402982886736330000007202122624283195014_" gradientUnits="userSpaceOnUse" x1="218.4065" y1="315.9618" x2="186.935" y2="395.3898" gradientTransform="matrix(0.7071 0.7071 -0.7071 0.7071 224.5616 -341.6434)">
	<stop  offset="0" style="stop-color:#FFFFFF"/>
	<stop  offset="1" style="stop-color:#00E48C"/>
</linearGradient>
<circle style="fill:url(#SVGID_00000026148402982886736330000007202122624283195014_);" cx="82.7" cy="67.7" r="51.6"/>
<linearGradient id="SVGID_00000085939004116203007990000012418927941172489372_" gradientUnits="userSpaceOnUse" x1="27.1938" y1="18.6621" x2="87.2044" y2="71.7188">
	<stop  offset="4.730289e-02" style="stop-color:#FFFFFF"/>
	<stop  offset="1" style="stop-color:#00E48C"/>
</linearGradient>
<circle style="fill:url(#SVGID_00000085939004116203007990000012418927941172489372_);" cx="82.7" cy="67.7" r="48.3"/>
<linearGradient id="SVGID_00000145759623787205108220000001632911657413206662_" gradientUnits="userSpaceOnUse" x1="378.4894" y1="450.3556" x2="353.209" y2="514.1583" gradientTransform="matrix(0.3141 0.9494 -0.9494 0.3141 455.0684 -429.3685)">
	<stop  offset="0" style="stop-color:#FFFFFF"/>
	<stop  offset="1" style="stop-color:#00DA8C"/>
</linearGradient>
<circle style="fill:url(#SVGID_00000145759623787205108220000001632911657413206662_);" cx="82.7" cy="67.7" r="41.4"/>
<g>
	
		<linearGradient id="SVGID_00000061431971098912899750000017246394303324326840_" gradientUnits="userSpaceOnUse" x1="52.9705" y1="37.8351" x2="128.8878" y2="37.8351">
		<stop  offset="0" style="stop-color:#FFFFFF"/>
		<stop  offset="1" style="stop-color:#00DA8C"/>
	</linearGradient>
	<path style="opacity:0.31;fill:url(#SVGID_00000061431971098912899750000017246394303324326840_);" d="M53,30.7
		c1.1-0.9,2.3-1.8,3.5-2.6c21.8-14.6,51.3-8.8,65.9,13c3.1,4.6,5.2,9.4,6.5,14.5L53,30.7z"/>
	
		<linearGradient id="SVGID_00000034803788203250438650000006856257838030394299_" gradientUnits="userSpaceOnUse" x1="35.1561" y1="67.897" x2="130.2304" y2="67.897">
		<stop  offset="0" style="stop-color:#FFFFFF"/>
		<stop  offset="1" style="stop-color:#00DA8C"/>
	</linearGradient>
	<path style="opacity:0.24;fill:url(#SVGID_00000034803788203250438650000006856257838030394299_);" d="M35.2,64.9
		c0.5-8,3-15.8,7.4-22.6l87.7,28.7c-0.5,8-3,15.8-7.4,22.6L35.2,64.9z"/>
	
		<linearGradient id="SVGID_00000130635835668595973030000013861971225086581915_" gradientUnits="userSpaceOnUse" x1="37.2043" y1="98.2105" x2="111.8864" y2="98.2105">
		<stop  offset="0" style="stop-color:#FFFFFF"/>
		<stop  offset="1" style="stop-color:#00DA8C"/>
	</linearGradient>
	<path style="opacity:0.15;fill:url(#SVGID_00000130635835668595973030000013861971225086581915_);" d="M43.4,94.4
		c-2.8-4.2-4.9-8.7-6.2-13.4l74.7,24.3c-0.9,0.7-1.7,1.3-2.6,1.9C87.5,121.9,58,116.2,43.4,94.4z"/>
</g>
<path class="st9" d="M102.1,56.3L93.8,37c0,0,0,0,0,0c0,0,0-0.1,0-0.1c0,0,0,0,0,0c0,0,0-0.1-0.1-0.1c0,0,0,0,0,0c0,0,0,0-0.1,0
	c0,0,0,0,0,0c0,0,0,0,0,0c0,0,0,0,0,0c0,0,0,0-0.1,0c0,0,0,0-0.1,0c0,0,0,0,0,0c0,0-0.1,0-0.1,0c0,0,0,0,0,0c0,0-0.1,0-0.1,0
	c0,0,0,0,0,0l-1.8,0.7l0.4,0.3L73.1,50.9c-0.1,0.1-0.2,0.2-0.2,0.3l-6.1,31.9c0,0.1,0.1,0.2,0.1,0.3l0.4,0.7l0.1,0.2l9.4,16.3
	c0.1,0.1,0.2,0.2,0.4,0.3c0.1,0,0.1,0,0.2,0c0.1,0,0.2,0,0.3-0.1l17.3-13.2c0.1-0.1,0.2-0.2,0.2-0.3l7-30.9
	C102.1,56.5,102.1,56.4,102.1,56.3z"/>
<g>
	<path class="st10" d="M90.4,37.8l-19,13.1c-0.1,0.1-0.2,0.2-0.2,0.3l-5.7,30.3c0,0.1,0.1,0.2,0.1,0.3l11.1,18.8
		c0.1,0.1-0.1-0.4,0-0.4c0.1,0,0.1,0,0.2,0c0.1,0,0.2,0,0.3-0.1l16.2-13c0.1-0.1,0.2-0.2,0.2-0.3l7-30.9c0-0.1,0-0.2,0-0.3"/>
</g>
<g>
	<path class="st11" d="M101,56.2l-8.1-18.8c0,0,0,0,0,0c0,0,0-0.1,0-0.1c0,0,0,0,0,0c0,0,0-0.1-0.1-0.1c0,0,0,0,0,0c0,0,0,0-0.1,0
		c0,0,0,0,0,0c0,0,0,0,0,0c0,0,0,0,0,0c0,0,0,0-0.1,0c0,0,0,0-0.1,0c0,0,0,0,0,0c0,0-0.1,0-0.1,0c0,0,0,0,0,0c0,0-0.1,0-0.1,0
		c0,0,0,0,0,0l-1.7,0.7l0.4,0.3L72.6,51c-0.1,0.1-0.2,0.2-0.2,0.3l-5.9,31.3c0,0.1,0,0.3,0.1,0.4l0.4,0.7l0.1,0.2l9.2,16
		c0.1,0.1,0.2,0.2,0.4,0.3c0.1,0,0.1,0,0.2,0c0.1,0,0.2,0,0.3-0.1l17-13c0.1-0.1,0.2-0.2,0.2-0.3l6.8-30.3
		C101,56.4,101,56.3,101,56.2z"/>
</g>
<polygon class="st12" points="75.7,97.5 91.7,84.9 98.2,54.7 90.4,39.2 72.1,51.2 65.8,81.7 "/>
<linearGradient id="SVGID_00000166665768293258018210000002020229680829715073_" gradientUnits="userSpaceOnUse" x1="149.9497" y1="141.6185" x2="178.7002" y2="141.6185" gradientTransform="matrix(0.9944 -0.106 0.106 0.9944 -91.2678 -55.2041)">
	<stop  offset="4.315509e-07" style="stop-color:#5DF6CA"/>
	<stop  offset="0.8573" style="stop-color:#5DF6CA"/>
	<stop  offset="1" style="stop-color:#5DF6CA"/>
</linearGradient>
<path style="fill:url(#SVGID_00000166665768293258018210000002020229680829715073_);" d="M100.3,56l-8-18.6l0,0c0,0,0-0.1-0.1-0.1
	l0,0c0,0,0-0.1-0.1-0.1l-0.4,0.2c0,0,0,0,0,0l8.1,18.9c0,0.1,0,0.1,0,0.2l-6.7,30c0,0.1-0.1,0.1-0.1,0.2l-17,13l0.2,0.4c0,0,0,0,0,0
	l17-13c0.1-0.1,0.2-0.3,0.3-0.4l6.7-30C100.3,56.3,100.3,56.2,100.3,56z"/>
<polygon class="st14" points="73.1,53.9 77.9,53.4 81.4,57.7 75.9,78.6 68.2,80.4 "/>
<polygon class="st14" points="84.9,57.9 88.2,55.4 93.7,58.4 94.5,64.3 90.6,83.6 82,83.9 79.3,80.2 "/>
<polygon class="st14" points="91.2,42.8 89.9,51.9 95.5,55.9 96.7,55.3 "/>
<polygon class="st14" points="88.6,42.8 87.1,50.7 82.8,50 "/>
<polygon class="st14" points="83.9,44.3 75.7,50.2 78.7,49.9 "/>
<polygon class="st14" points="81.8,87 79,93.6 87.7,86.9 "/>
<polygon class="st14" points="77.2,82.6 79.3,85.7 76.2,93.4 74.9,85.5 "/>
<polygon class="st14" points="68.8,83.9 73.4,91.7 72.1,86.1 "/>
<polygon class="st14" points="71,82.4 74.5,82 73.2,83.5 "/>
<linearGradient id="SVGID_00000027605274298047459740000013858609022621937282_" gradientUnits="userSpaceOnUse" x1="126.38" y1="41.5891" x2="94.0778" y2="60.8365">
	<stop  offset="0" style="stop-color:#FFFFFF"/>
	<stop  offset="1" style="stop-color:#FFFFFF;stop-opacity:0"/>
</linearGradient>
<path style="opacity:0.35;fill:url(#SVGID_00000027605274298047459740000013858609022621937282_);" d="M67.4,31.8
	c0,0,15.6,12.6,20.1,38.2c4.5,25.6,1.2,38.8,22.6,29.6c21.4-9.2,21.7-43.9,5.5-62.3C99.5,19,66.9,20.3,67.4,31.8z"/>
<linearGradient id="SVGID_00000079474457669446497430000002641346808852533430_" gradientUnits="userSpaceOnUse" x1="74.999" y1="29.52" x2="112.2577" y2="29.52">
	<stop  offset="0" style="stop-color:#FFFFFF"/>
	<stop  offset="1" style="stop-color:#FFFFFF;stop-opacity:0"/>
</linearGradient>
<path style="opacity:0.35;fill:url(#SVGID_00000079474457669446497430000002641346808852533430_);" d="M102.5,29.8l-0.2-0.5
	l-0.5-0.1C102.1,29.3,102.3,29.5,102.5,29.8z"/>
<linearGradient id="SVGID_00000036216745560281619110000011364597687608077727_" gradientUnits="userSpaceOnUse" x1="100.787" y1="29.2199" x2="102.7056" y2="29.2199">
	<stop  offset="0" style="stop-color:#FFFFFF"/>
	<stop  offset="1" style="stop-color:#FFFFFF;stop-opacity:0"/>
</linearGradient>
<polygon style="opacity:0.35;fill:url(#SVGID_00000036216745560281619110000011364597687608077727_);" points="101.7,29.2 
	101.7,29.2 101.7,29.2 "/>
<linearGradient id="SVGID_00000054265644014940207680000015678052049698679467_" gradientUnits="userSpaceOnUse" x1="101.768" y1="29.1826" x2="101.5149" y2="29.6209">
	<stop  offset="3.676175e-07" style="stop-color:#5DF6CA"/>
	<stop  offset="0.1895" style="stop-color:#5DF0CA;stop-opacity:0.7422"/>
	<stop  offset="0.441" style="stop-color:#5DDFCA;stop-opacity:0.4"/>
	<stop  offset="0.5145" style="stop-color:#5DD9CA;stop-opacity:0.3"/>
	<stop  offset="1" style="stop-color:#5DD9CA"/>
</linearGradient>
<polygon style="fill:url(#SVGID_00000054265644014940207680000015678052049698679467_);" points="101.7,29.2 101.7,29.2 101.7,29.2 
	"/>
<linearGradient id="SVGID_00000108303332617959377360000017015388536323286971_" gradientUnits="userSpaceOnUse" x1="177.392" y1="116.1873" x2="141.9672" y2="164.7898" gradientTransform="matrix(0.9944 -0.106 0.106 0.9944 -91.2678 -55.2041)">
	<stop  offset="1.438503e-07" style="stop-color:#00BFA1"/>
	<stop  offset="9.097435e-02" style="stop-color:#06C1A4;stop-opacity:0.8762"/>
	<stop  offset="0.212" style="stop-color:#17C5AB;stop-opacity:0.7115"/>
	<stop  offset="0.35" style="stop-color:#32CDB7;stop-opacity:0.5238"/>
	<stop  offset="0.4996" style="stop-color:#59D8C8;stop-opacity:0.3203"/>
	<stop  offset="0.5145" style="stop-color:#5DD9CA;stop-opacity:0.3"/>
	<stop  offset="0.6449" style="stop-color:#3BCFBB;stop-opacity:0.488"/>
	<stop  offset="0.7919" style="stop-color:#1BC6AD;stop-opacity:0.6999"/>
	<stop  offset="0.9156" style="stop-color:#07C1A4;stop-opacity:0.8783"/>
	<stop  offset="1" style="stop-color:#00BFA1"/>
</linearGradient>
<path style="fill:url(#SVGID_00000108303332617959377360000017015388536323286971_);" d="M66.4,82.7L75.2,98
	c0.1,0.1,0.2,0.2,0.3,0.2c0.1,0,0.1,0,0.2,0c0.1,0,0.2,0,0.3-0.1l16.3-12.5c0.1-0.1,0.2-0.2,0.2-0.3l6.5-29c0-0.1,0-0.2,0-0.3
	L91.2,38c0,0,0,0,0,0c0,0,0-0.1,0-0.1c0,0,0,0,0,0c0,0,0-0.1-0.1-0.1c0,0,0,0,0,0c0,0,0,0-0.1,0c0,0,0,0,0,0c0,0,0,0,0,0
	c0,0,0,0,0,0c0,0,0,0-0.1,0c0,0,0,0-0.1,0c0,0,0,0,0,0c0,0-0.1,0-0.1,0c0,0,0,0,0,0c0,0-0.1,0-0.1,0c0,0,0,0,0,0c0,0,0,0,0,0
	L71.7,51.1c-0.1,0.1-0.2,0.2-0.2,0.3l-5.7,30c0,0.1,0,0.2,0.1,0.3l0.4,0.7L66.4,82.7z M83.5,55.9l-3.7-4.2l0.1-0.1l7.1,1.6
	L83.5,55.9z M79.5,50.5l-6.4,0.8L87.6,41L79.5,50.5z M80.6,50.7l9.2-10.8l-2.1,12.4L80.6,50.7z M90.9,40l6.9,16l-2.2,0.7l-6.8-4
	L90.9,40z M96,57.6l1.7-0.6L96.6,62L96,57.6z M67.1,81.5l-0.2,0l-0.1-0.2l5.5-29l5.7-0.7c0.3,0,0.5,0.1,0.7,0.3c0,0,0,0,0,0l4.1,4.7
	l-6.1,23.4l-8.7,1.3L67.1,81.5z M69.5,82.2l6.5-1l-2.7,3.2L69.5,82.2z M81.4,86.1l8.9-0.2L76.9,96.1L81.4,86.1z M75.9,95.8l-2-10.6
	l3.3-3.9l3.3,4.3L75.9,95.8z M67.9,82.4l5.1,2.9l1.8,10l-7.4-12.8L67.9,82.4z M91.5,84.8L81.3,85l-3.5-4.6l6.1-23.5l4.3-3.3l6.8,4
	l0.9,6.9L91.5,84.8z"/>
</svg>
